<?xml version="1.0" encoding="utf-8"?>
<svg width="336" height="204" viewBox="0 0 336 204" xmlns="http://www.w3.org/2000/svg">
<rect id="frame" x="0" y="0" width="336" height="204" fill="#ffffbf" stroke="none" stroke-width="0"/>

<!-- Association APPARTENIR -->
<g class="page_0_nUnJeNLI diagram_page" visibility="visible">
	<line x1="46" y1="102" x2="161" y2="102" stroke="#66c2a5" stroke-width="2"/>
	<text x="88" y="119" fill="#d53e4f" font-family="Verdana" font-size="12">0,N</text>
	<line x1="283" y1="102" x2="161" y2="102" stroke="#66c2a5" stroke-width="2"/>
	<text x="213" y="119" fill="#d53e4f" font-family="Verdana" font-size="12">0,1</text>
	<g>
		<path d="M193 77 a14 14 90 0 1 14 14 V102 h-92 V91 a14 14 90 0 1 14 -14" fill="#abdda4" stroke="#abdda4" stroke-width="0"/>
		<path d="M207 102 v11 a14 14 90 0 1 -14 14 H129 a14 14 90 0 1 -14 -14 V102 H92" fill="#e6f598" stroke="#e6f598" stroke-width="0"/>
		<rect x="115" y="77" width="92" height="50" fill="none" rx="14" stroke="#66c2a5" stroke-width="2"/>
		<line x1="115" y1="102" x2="207" y2="102" stroke="#66c2a5" stroke-width="1"/>
		<text x="122" y="94.75" fill="#000" font-family="Verdana" font-size="12">APPARTENIR</text>
	</g>
</g>

<!-- Entity LIGUE -->
<g class="page_0_nUnJeNLI diagram_page" visibility="visible">
	<g>
		<rect x="9" y="68" width="74" height="25" fill="#fdae61" stroke="#fdae61" stroke-width="0" opacity="1"/>
		<rect x="9" y="93" width="74" height="43" fill="#fee08b" stroke="#fee08b" stroke-width="0" opacity="1"/>
		<rect x="9" y="68" width="74" height="68" fill="none" stroke="#f46d43" stroke-width="2" opacity="1"/>
		<line x1="9" y1="93" x2="83" y2="93" stroke="#f46d43" stroke-width="1"/>
	</g>
	<text x="27" y="85.75" fill="#000" font-family="Verdana" font-size="12">LIGUE</text>
	<text x="14" y="110.8" fill="#000" font-family="Verdana" font-size="12">id_ligue</text>
	<line x1="14" y1="113" x2="62" y2="113" stroke="#000" stroke-width="1"/>
	<text x="14" y="127.8" fill="#000" font-family="Verdana" font-size="12">nom_ligue</text>
</g>

<!-- Entity EMPLOYÉ -->
<g class="page_0_nUnJeNLI diagram_page" visibility="visible">
	<g>
		<rect x="239" y="9" width="88" height="25" fill="#fdae61" stroke="#fdae61" stroke-width="0" opacity="1"/>
		<rect x="239" y="34" width="88" height="161" fill="#fee08b" stroke="#fee08b" stroke-width="0" opacity="1"/>
		<rect x="239" y="9" width="88" height="186" fill="none" stroke="#f46d43" stroke-width="2" opacity="1"/>
		<line x1="239" y1="34" x2="327" y2="34" stroke="#f46d43" stroke-width="1"/>
	</g>
	<text x="255" y="26.75" fill="#000" font-family="Verdana" font-size="12">EMPLOYÉ</text>
	<text x="244" y="51.8" fill="#000" font-family="Verdana" font-size="12">id_employee</text>
	<line x1="244" y1="54" x2="322" y2="54" stroke="#000" stroke-width="1"/>
	<text x="244" y="68.8" fill="#000" font-family="Verdana" font-size="12">nom</text>
	<text x="244" y="85.8" fill="#000" font-family="Verdana" font-size="12">prénom</text>
	<text x="244" y="102.8" fill="#000" font-family="Verdana" font-size="12">mail</text>
	<text x="244" y="119.8" fill="#000" font-family="Verdana" font-size="12">password</text>
	<text x="244" y="136.8" fill="#000" font-family="Verdana" font-size="12">datearrivée</text>
	<text x="244" y="153.8" fill="#000" font-family="Verdana" font-size="12">datedépart</text>
	<text x="244" y="170.8" fill="#000" font-family="Verdana" font-size="12">habilitation</text>
	<text x="244" y="187.8" fill="#000" font-family="Verdana" font-size="12">#id_ligue</text>
</g>
</svg>